<svg xmlns="http://www.w3.org/2000/svg" xmlns:xlink="http://www.w3.org/1999/xlink" viewBox="0 0 340.43 18.5">
  <defs>
    <style>
      .cls-1 {
        fill: #c9e37d;
      }

      .cls-2 {
        fill: #d2ef64;
      }

      .cls-3 {
        fill: none;
      }

      .cls-4 {
        fill: #fbf23e;
      }

      .cls-5 {
        fill: #a0d455;
      }

      .cls-6 {
        clip-path: url(#clippath);
      }
    </style>
    <clipPath id="clippath">
      <rect class="cls-3" y="0" width="340.43" height="18.5"/>
    </clipPath>
  </defs>
    <polygon class="cls-1" points="3.45 0 0 18.09 15.43 18.09 3.45 0"/>
    <polygon class="cls-1" points="336.98 0 325 18.09 340.43 18.09 336.98 0"/>
    <polygon class="cls-5" points="17.11 18.09 26.46 18.09 21.93 7.64 17.11 18.09"/>
    <polygon class="cls-1" points="64.1 18.09 73.46 18.09 68.93 7.64 64.1 18.09"/>
    <polygon class="cls-5" points="29.09 18.5 37.39 18.5 31.41 11.42 29.09 18.5"/>
    <polygon class="cls-5" points="55.22 18.5 61.57 18.5 60.85 11.42 55.22 18.5"/>
    <polygon class="cls-1" points="44.54 16.99 43.39 13.59 39 18.5 43.61 18.5 45.39 18.5 52.52 18.5 50.1 11.52 44.54 16.99"/>
    <polygon class="cls-5" points="105.1 18.09 114.46 18.09 109.93 7.64 105.1 18.09"/>
    <polygon class="cls-1" points="152.1 18.09 161.46 18.09 156.92 7.64 152.1 18.09"/>
    <polygon class="cls-1" points="165.39 18.09 166.09 18.09 175.04 18.09 177.38 7.32 171.62 12.82 165.54 3.47 165.39 18.09"/>
    <polygon class="cls-5" points="117.09 18.5 125.39 18.5 119.41 11.42 117.09 18.5"/>
    <polygon class="cls-2" points="143.22 18.5 149.57 18.5 148.84 11.42 143.22 18.5"/>
    <polygon class="cls-1" points="132.54 16.99 131.39 13.59 127 18.5 131.61 18.5 133.39 18.5 140.52 18.5 138.1 11.52 132.54 16.99"/>
    <polygon class="cls-1" points="94.01 16.99 92.86 13.59 89.66 17.17 87.7 11.52 82.13 16.99 80.99 13.59 76.6 18.5 81.21 18.5 82.99 18.5 88.48 18.5 90.12 18.5 93.09 18.5 94.87 18.5 102 18.5 99.58 11.52 94.01 16.99"/>
    <polygon class="cls-5" points="178.57 18.09 187.93 18.09 183.4 7.64 178.57 18.09"/>
    <polygon class="cls-1" points="225.57 18.09 234.92 18.09 230.39 7.64 225.57 18.09"/>
    <polygon class="cls-5" points="190.55 18.5 198.86 18.5 192.88 11.42 190.55 18.5"/>
    <polygon class="cls-2" points="216.68 18.5 223.03 18.5 222.31 11.42 216.68 18.5"/>
    <polygon class="cls-1" points="206 16.99 204.86 13.59 200.47 18.5 205.08 18.5 206.86 18.5 213.99 18.5 211.57 11.52 206 16.99"/>
    <polygon class="cls-5" points="266.57 18.09 275.93 18.09 271.4 7.64 266.57 18.09"/>
    <polygon class="cls-5" points="313.56 18.09 322.92 18.09 318.39 7.64 313.56 18.09"/>
    <polygon class="cls-5" points="278.55 18.5 286.85 18.5 280.87 11.42 278.55 18.5"/>
    <polygon class="cls-2" points="304.68 18.5 311.03 18.5 310.31 11.42 304.68 18.5"/>
    <polygon class="cls-1" points="294 16.99 292.85 13.59 288.47 18.5 293.08 18.5 294.86 18.5 301.99 18.5 299.57 11.52 294 16.99"/>
    <polygon class="cls-1" points="255.48 16.99 254.33 13.59 251.13 17.17 249.17 11.52 243.6 16.99 242.45 13.59 238.06 18.5 242.68 18.5 244.46 18.5 249.94 18.5 251.59 18.5 254.55 18.5 256.33 18.5 263.46 18.5 261.04 11.52 255.48 16.99"/>
    <g class="cls-6">
      <path class="cls-4" d="M287.59,14.47l-.29-.16-.29.17c-.64.37-1.43-.09-1.44-.82v-.33s-.29-.16-.29-.16c-.64-.37-.64-1.29,0-1.66l.29-.17v-.33c0-.74.79-1.2,1.43-.84l.29.16.29-.17c.64-.37,1.43.09,1.44.82v.33s.29.16.29.16c.64.37.64,1.29,0,1.66l-.28.17v.33c0,.74-.79,1.2-1.43.83"/>
      <path class="cls-4" d="M76.27,14.94l-.29-.16-.29.17c-.64.37-1.43-.09-1.44-.82v-.33s-.29-.16-.29-.16c-.64-.37-.64-1.29,0-1.66l.28-.17v-.33c0-.74.79-1.2,1.43-.84l.29.16.28-.17c.64-.37,1.43.09,1.44.82v.33s.29.16.29.16c.64.37.64,1.29,0,1.66l-.28.17v.33c0,.74-.79,1.2-1.43.83"/>
    </g>
</svg>